PathFileType	4	(X/Y/Z)	Kaydara	
DataRate	CameraRate	NumFrames	NumMarkers	Units	OrigDataRate	OrigDataStartFrame	OrigNumFrames	
60.00	60.00	4	74	mm	60.00	239	242	
Frame#	Time	Z_lasi			Z_rasi			Z_rpsi			Z_lpsi			Z_fneck			Z_bneck			Z_fhead			Z_rhead			Z_lhead			Z_rshld			Z_relbtop			Z_relbext			Z_relblow			Z_rwrext			Z_rwrtop			Z_rwrlow			Z_lshld			Z_lelbext			Z_lelblow			Z_lelbtop			Z_lwrext			Z_lwrtop			Z_rtopleg			Z_ltopleg			Z_rkneefr			Z_rkneebk			Z_rkneeis			Z_lkneefr			Z_lknssbk			Z_lkneeis			Z_rankfr			Z_rankis			Z_rankbk			Z_lankfr			Z_lankbk			Z_lankis			A_lasi			A_rasi			A_rpsi			A_lpsi			A_fneck			A_bneck			A_fhead			A_rhead			A_lhead			A_rshld			A_relbtop			A_relbext			A_relblow			A_rwrext			A_rwrtop			A_rwrlow			A_lshld			A_lelbext			A_lelblow			A_lelbtop			A_lwrext			A_lwrtop			A_lwrlow			A_rtopleg			A_ltopleg			A_rkneefr			A_rkneebk			A_rkneeis			A_lkneefr			A_lknssbk			A_lkneeis			A_rankfr			A_rankis			A_rankbk			A_lankfr			A_lankbk			A_lankis			Z_lwrlow			
		X1	Y1	Z1	X2	Y2	Z2	X3	Y3	Z3	X4	Y4	Z4	X5	Y5	Z5	X6	Y6	Z6	X7	Y7	Z7	X8	Y8	Z8	X9	Y9	Z9	X10	Y10	Z10	X11	Y11	Z11	X12	Y12	Z12	X13	Y13	Z13	X14	Y14	Z14	X15	Y15	Z15	X16	Y16	Z16	X17	Y17	Z17	X18	Y18	Z18	X19	Y19	Z19	X20	Y20	Z20	X21	Y21	Z21	X22	Y22	Z22	X23	Y23	Z23	X24	Y24	Z24	X25	Y25	Z25	X26	Y26	Z26	X27	Y27	Z27	X28	Y28	Z28	X29	Y29	Z29	X30	Y30	Z30	X31	Y31	Z31	X32	Y32	Z32	X33	Y33	Z33	X34	Y34	Z34	X35	Y35	Z35	X36	Y36	Z36	X37	Y37	Z37	X38	Y38	Z38	X39	Y39	Z39	X40	Y40	Z40	X41	Y41	Z41	X42	Y42	Z42	X43	Y43	Z43	X44	Y44	Z44	X45	Y45	Z45	X46	Y46	Z46	X47	Y47	Z47	X48	Y48	Z48	X49	Y49	Z49	X50	Y50	Z50	X51	Y51	Z51	X52	Y52	Z52	X53	Y53	Z53	X54	Y54	Z54	X55	Y55	Z55	X56	Y56	Z56	X57	Y57	Z57	X58	Y58	Z58	X59	Y59	Z59	X60	Y60	Z60	X61	Y61	Z61	X62	Y62	Z62	X63	Y63	Z63	X64	Y64	Z64	X65	Y65	Z65	X66	Y66	Z66	X67	Y67	Z67	X68	Y68	Z68	X69	Y69	Z69	X70	Y70	Z70	X71	Y71	Z71	X72	Y72	Z72	X73	Y73	Z73	X74	Y74	Z74	

31	3.967	-214.79847	1096.59157	-136.66844	-423.70979	1105.39413	-149.48568	-447.30618	1129.40414	-344.90551	-199.83555	1119.51416	-330.91591	-320.73570	1459.32632	-196.12225	-314.67224	1522.35199	-303.19540	-361.42792	1661.21216	-101.44781	-441.28349	1635.84930	-246.73843	-296.49761	1665.12558	-258.58120	-510.01534	1448.24371	-315.60089	-567.72667	1116.99753	-312.18454	-573.47668	1105.20554	-390.63114	-511.35765	1092.89894	-389.30584	-603.58044	893.34175	-318.33857	-597.21809	905.79102	-275.14408	-554.15215	903.01414	-276.08246	-135.21912	1477.29797	-242.27482	31.00513	1170.52452	-177.10072	-46.84077	1172.99026	-175.82104	2.07132	1236.55838	-142.09949	-149.17524	1177.14554	39.93064	-108.45636	1195.54504	60.69856	-503.65318	930.80994	-325.76897	-147.70950	899.41322	-219.91663	-482.09156	422.03587	-256.24447	-511.29230	457.48035	-335.97019	-391.47755	438.06458	-303.31913	-189.45292	431.54217	-201.44665	-168.55251	460.65037	-305.73948	-271.76783	421.30363	-241.81997	-485.57423	188.24753	-331.38741	-418.77079	186.17657	-338.23540	-470.17361	192.99938	-405.66158	-171.73954	165.72062	-248.86572	-201.45931	169.73204	-324.50207	-243.90446	174.59555	-258.14072	-163.35413	1036.52664	1175.83336	-38.67718	1035.79407	1272.95059	-125.32567	1008.44101	1406.60126	-245.82752	1026.21422	1269.30458	-148.98087	1358.66974	1316.45844	-182.89091	1379.54498	1451.44623	-116.00524	1561.91818	1257.45377	-49.44365	1515.25909	1408.34396	-212.07500	1527.00226	1392.24442	-36.94764	1328.75977	1470.60638	85.28487	1134.47777	1354.20288	74.69270	1077.06078	1316.94794	49.91023	1152.20642	1307.89063	119.54552	1327.00974	1324.18198	118.32540	1330.25253	1279.43054	77.02185	1330.32532	1329.48090	-294.53197	1358.29483	1273.18375	-327.32845	1064.11514	1188.50754	-309.71695	1045.52872	1231.41418	-273.98666	1063.95714	1176.67137	-315.78394	845.90790	1101.55273	-294.86721	864.03946	1064.59396	-271.79520	842.05383	1109.15649	-20.78398	849.33182	1404.07654	-247.06522	866.52695	1140.95299	-31.83731	398.94024	1272.52220	28.60466	448.59619	1352.23221	82.03959	391.73847	1274.51012	-124.92741	445.83858	1304.38950	-208.75828	456.60885	1212.05704	-88.87268	418.01285	1205.70297	19.48031	182.87334	1421.59393	-47.39512	177.52323	1397.96478	-35.58329	205.19810	1477.61612	-111.93304	158.06114	1232.46742	-181.29343	150.92489	1244.78455	-123.04779	165.25637	1309.95316	-89.21076	1153.25401	68.22867 
32	3.983	-215.58815	1096.71272	-139.65610	-424.65233	1105.69344	-148.43073	-451.48815	1129.21295	-343.49941	-204.01045	1119.13391	-333.96702	-322.01252	1459.74060	-198.43788	-317.36628	1522.22595	-305.91347	-360.53146	1661.88889	-103.90322	-442.26711	1636.80801	-248.18148	-297.42704	1665.01083	-261.64230	-513.38196	1448.11462	-314.74356	-570.87803	1116.97136	-308.00955	-578.40946	1104.77859	-386.56895	-516.24943	1092.51190	-386.89449	-606.86646	893.28629	-312.66758	-598.43025	905.61562	-269.55421	-554.57199	902.58415	-273.08447	-137.66487	1477.79526	-247.64259	30.43880	1173.17291	-176.07420	-47.49326	1176.20560	-174.28509	2.40575	1241.47911	-145.15785	-148.54240	1197.11693	40.33442	-107.78593	1215.98724	59.97854	-506.87057	930.70297	-323.49770	-150.28279	899.67728	-222.03728	-481.45420	421.23604	-261.22698	-507.53136	456.37157	-342.27264	-390.18711	435.81036	-302.78519	-190.74234	431.85513	-202.05065	-170.37907	460.86117	-306.24105	-273.07972	421.35029	-241.96821	-484.08810	187.21689	-332.95826	-417.18430	184.48507	-337.79675	-466.20937	191.04109	-406.76117	-172.02482	166.07368	-249.05325	-202.04239	169.86233	-324.65797	-244.07553	174.55980	-258.22418	-158.51154	1036.80618	1176.70975	-31.62753	1035.87173	1270.79102	-115.00382	1007.36397	1406.56845	-238.73451	1025.98282	1271.78391	-140.85741	1358.29514	1317.74918	-172.47023	1378.00949	1453.97583	-106.67813	1561.68335	1260.36934	-39.01140	1513.34000	1410.34042	-201.60728	1526.31210	1395.82962	-26.26359	1327.54944	1470.05920	93.30321	1133.75038	1349.82529	82.03186	1076.66748	1312.70126	57.09741	1152.24609	1304.43024	127.90866	1326.32019	1321.16974	124.89935	1330.07401	1276.82137	86.55082	1329.41635	1329.55978	-287.68759	1358.47061	1278.15948	-319.06826	1064.47350	1191.75621	-301.14328	1045.81627	1234.54300	-266.05152	1065.41695	1179.89082	-303.81681	848.67645	1099.49135	-283.33759	868.18863	1063.06023	-259.84682	845.66391	1107.29813	-11.24208	847.63573	1400.55481	-241.95442	866.62903	1142.36557	-27.79263	393.71883	1274.10378	36.44847	445.35057	1348.58170	85.92999	391.62354	1267.48985	-116.60737	445.99598	1302.97211	-201.88501	456.92734	1212.28493	-82.24104	418.16666	1204.54834	48.44580	176.53198	1411.09741	-20.06196	167.69533	1393.44055	-2.80436	193.67111	1472.26013	-109.64788	157.43894	1232.50664	-178.93444	151.56168	1245.17731	-119.54068	165.04843	1309.98947	-89.00928	1173.94409	70.44070 
33	4.000	-217.20043	1096.92047	-142.17821	-426.23184	1106.10672	-147.49989	-455.87837	1129.55215	-344.08813	-207.94796	1118.80432	-336.76186	-323.76450	1460.32455	-200.56984	-320.40199	1522.09549	-308.52646	-360.32768	1662.82547	-106.49372	-443.63098	1637.79160	-249.82653	-298.86595	1665.04745	-264.78859	-516.81938	1447.86301	-314.02058	-573.49792	1116.45226	-304.48709	-582.94659	1104.14337	-382.74712	-520.79876	1091.88019	-384.29260	-609.81979	893.03955	-307.06213	-599.90311	905.46448	-264.15968	-555.11265	901.98830	-270.05821	-140.46265	1477.97211	-252.63754	29.37179	1175.44670	-176.16833	-48.71593	1178.95500	-173.58948	2.21523	1245.44182	-148.53404	-147.58593	1213.98735	39.35659	-107.16576	1233.09601	57.94960	-510.66933	930.60608	-323.50681	-153.08437	899.87381	-224.87463	-481.52664	421.27941	-265.01526	-504.91772	456.33083	-346.86653	-389.80301	435.06718	-302.10104	-192.00594	432.22874	-202.39237	-172.07909	461.00971	-306.78963	-274.49253	421.33923	-241.92368	-483.31638	186.83205	-334.67152	-416.57658	183.64927	-337.59697	-463.84827	189.87988	-407.68005	-172.63231	166.39797	-249.04854	-202.52949	169.97450	-324.78527	-244.33023	174.52913	-258.39842	-153.60995	1036.82861	1177.56935	-24.15210	1035.98511	1268.33443	-104.53346	1006.47392	1406.46103	-231.76682	1025.46570	1274.65538	-132.60787	1357.80991	1319.24194	-162.26740	1376.52069	1456.14594	-97.36901	1561.44135	1263.39554	-28.67169	1511.38458	1412.44873	-191.57000	1525.42664	1399.46228	-15.41809	1326.35544	1469.60922	101.61927	1133.05229	1345.84473	89.33326	1076.49330	1308.76617	64.61874	1152.50275	1301.58691	137.01713	1325.76263	1318.50876	132.57739	1329.94171	1274.46587	95.48839	1328.88382	1327.55692	-280.24815	1358.47137	1282.68677	-311.10483	1064.67720	1195.02808	-293.44934	1045.57388	1237.75108	-258.38507	1066.36261	1183.08083	-292.66075	851.35506	1097.63168	-272.37247	872.22374	1061.69510	-248.91064	849.04808	1105.68436	-1.88713	845.99113	1397.05994	-237.52922	866.63368	1144.58038	-22.90091	388.66211	1277.28325	43.60205	442.56393	1346.78955	89.09444	391.42517	1262.53555	-107.99364	446.04698	1301.29150	-194.97240	457.13360	1212.38045	-75.18307	418.30929	1202.29012	75.21432	171.24895	1400.25085	6.27784	159.34917	1387.20306	28.58181	183.74075	1466.02203	-107.32746	156.89548	1232.35924	-176.63874	152.27425	1245.50209	-117.03808	165.31414	1309.70764	-89.03428	1191.54037	70.78941 
34	4.017	-218.93991	1097.07542	-144.59167	-427.22980	1106.39748	-147.87369	-460.10178	1129.14085	-343.43258	-211.61167	1118.63052	-339.21612	-325.86418	1460.90714	-202.56222	-323.63499	1521.95892	-310.98995	-360.63755	1663.93036	-109.22663	-445.58315	1638.63968	-251.64537	-300.67974	1664.91486	-268.32279	-520.34039	1447.45605	-313.46228	-576.57440	1115.98984	-301.00901	-587.19795	1103.19641	-379.13788	-525.02373	1091.05980	-381.71783	-612.67700	892.78427	-301.50864	-601.61579	905.25314	-258.97236	-557.40063	901.67358	-265.51035	-143.30444	1478.16498	-256.95160	27.60206	1177.07420	-177.43425	-50.30973	1181.12038	-174.06942	1.17908	1248.24219	-152.29772	-147.62430	1227.51633	37.12577	-106.55316	1246.79672	54.93309	-513.65124	930.58731	-323.38634	-155.76685	900.28870	-226.17863	-482.20787	421.55582	-267.73830	-504.52049	456.72012	-349.95960	-390.14458	435.48485	-303.07644	-193.28978	432.58305	-202.82909	-173.73158	461.22627	-307.18390	-276.06106	421.23024	-241.90006	-483.71914	186.90697	-335.99266	-416.82159	183.55606	-338.39828	-463.80020	189.51126	-408.83766	-172.86329	166.77065	-249.28688	-202.99038	170.11314	-324.94057	-244.78207	174.58672	-258.53745	-148.52887	1036.60782	1178.51273	-17.13007	1035.55710	1266.57333	-93.40799	1006.02646	1406.66962	-224.63985	1025.11185	1277.45422	-124.20610	1357.24823	1320.90942	-151.62703	1374.66827	1458.48450	-88.28299	1561.16852	1266.65688	-18.60732	1509.64966	1414.81949	-181.40202	1524.36005	1403.14056	-4.51110	1325.15442	1469.19830	110.39961	1132.76756	1342.48718	97.06641	1076.46446	1304.74258	72.96510	1153.01498	1298.65265	146.78415	1325.22614	1316.04477	141.40650	1329.98016	1272.32948	104.67245	1328.68927	1325.28290	-272.53239	1358.18802	1286.74042	-304.25892	1064.58824	1198.76480	-285.96476	1044.97459	1240.99533	-251.03565	1066.94778	1186.25061	-282.15174	853.84560	1095.84839	-262.19090	875.96909	1060.53673	-238.59781	852.20322	1104.24927	8.27049	844.33487	1392.51343	-232.63691	866.64864	1146.41579	-17.64518	384.19197	1281.96106	51.57420	439.96780	1346.05087	92.48727	390.01320	1258.97720	-99.54218	445.78083	1299.22119	-188.04222	457.22904	1212.56531	-68.27679	418.27625	1199.73351	97.83554	167.74340	1390.42480	28.30913	153.72151	1383.16086	57.01085	177.12763	1460.60226	-105.22973	156.25415	1232.05948	-174.48082	152.86769	1245.87143	-113.77325	165.03977	1309.50348	-89.04284	1205.64316	69.69029 
